<svg height="18" viewBox="0 0 63.8 79.8" xmlns="http://www.w3.org/2000/svg"><path d="m5.3 19.9v33.3a15.24 15.24 0 0 0 5 10.9 15.83 15.83 0 0 0 10.9 5h5.3v10.7l15.9-15.9-15.9-15.9v10.7h-5.3a5.68 5.68 0 0 1 -3.7-1.6 4.85 4.85 0 0 1 -1.6-3.7v-33.3a10.31 10.31 0 0 0 5.3-9.2 10.71 10.71 0 0 0 -10.7-10.7 10.54 10.54 0 0 0 -10.5 10.7 11 11 0 0 0 5.3 9zm5.4-15.4a6.38 6.38 0 0 1 6.4 6.4 6.44 6.44 0 0 1 -6.4 6.4 6.51 6.51 0 0 1 -6.4-6.4 6.51 6.51 0 0 1 6.4-6.4zm31.9 59.4a10.71 10.71 0 0 0 10.7 10.7 10.54 10.54 0 0 0 10.5-10.7 10.89 10.89 0 0 0 -5.3-9.2v-34.8a10.31 10.31 0 0 0 5.3-9.2 10.7 10.7 0 1 0 -21.4 0 10.89 10.89 0 0 0 5.3 9.2v34.8a10.58 10.58 0 0 0 -5.1 9.2zm4.1-53a6.38 6.38 0 0 1 6.4-6.4 6.51 6.51 0 0 1 6.4 6.4 6.44 6.44 0 0 1 -6.4 6.4 6.51 6.51 0 0 1 -6.4-6.4zm6.4 46.6a6.38 6.38 0 0 1 6.4 6.4 6.4 6.4 0 0 1 -12.8 0 6.51 6.51 0 0 1 6.4-6.4z" fill="#4b4b4b"/></svg>